<mxfile host="65bd71144e">
    <diagram id="j2ne4LWH0yMlyIhExh2i" name="Page-1">
        <mxGraphModel dx="289" dy="668" grid="1" gridSize="10" guides="1" tooltips="1" connect="1" arrows="1" fold="1" page="1" pageScale="1" pageWidth="850" pageHeight="1100" math="0" shadow="0">
            <root>
                <mxCell id="0"/>
                <mxCell id="1" parent="0"/>
                <mxCell id="2" value="Table" style="rounded=0;whiteSpace=wrap;html=1;" parent="1" vertex="1">
                    <mxGeometry x="120" y="310" width="410" height="190" as="geometry"/>
                </mxCell>
                <mxCell id="3" value="Pagination" style="rounded=0;whiteSpace=wrap;html=1;" parent="1" vertex="1">
                    <mxGeometry x="120" y="500" width="410" height="60" as="geometry"/>
                </mxCell>
                <mxCell id="4" value="Items per page dropdown" style="rounded=0;whiteSpace=wrap;html=1;" parent="1" vertex="1">
                    <mxGeometry x="120" y="560" width="410" height="60" as="geometry"/>
                </mxCell>
                <mxCell id="5" value="Filter dropdowns" style="rounded=0;whiteSpace=wrap;html=1;" parent="1" vertex="1">
                    <mxGeometry x="120" y="130" width="410" height="60" as="geometry"/>
                </mxCell>
                <mxCell id="6" value="Title" style="rounded=0;whiteSpace=wrap;html=1;" parent="1" vertex="1">
                    <mxGeometry x="120" y="70" width="410" height="60" as="geometry"/>
                </mxCell>
                <mxCell id="7" value="Search" style="rounded=0;whiteSpace=wrap;html=1;" parent="1" vertex="1">
                    <mxGeometry x="120" y="190" width="410" height="60" as="geometry"/>
                </mxCell>
                <mxCell id="8" value="Sorting (in headers)" style="rounded=0;whiteSpace=wrap;html=1;" parent="1" vertex="1">
                    <mxGeometry x="120" y="250" width="410" height="60" as="geometry"/>
                </mxCell>
            </root>
        </mxGraphModel>
    </diagram>
    <diagram id="f_dZPb4E5wkQjJYwkSwk" name="Page-2">
        <mxGraphModel dx="289" dy="668" grid="1" gridSize="10" guides="1" tooltips="1" connect="1" arrows="1" fold="1" page="1" pageScale="1" pageWidth="850" pageHeight="1100" math="0" shadow="0">
            <root>
                <mxCell id="0"/>
                <mxCell id="1" parent="0"/>
                <mxCell id="yQSr9PsjuCROHe_LpoCY-1" value="&lt;div style=&quot;&quot;&gt;&lt;span style=&quot;background-color: initial;&quot;&gt;PAGINATION&lt;/span&gt;&lt;/div&gt;&lt;div style=&quot;&quot;&gt;&lt;span style=&quot;background-color: initial;&quot;&gt;Limit = 10&lt;/span&gt;&lt;/div&gt;&lt;div style=&quot;&quot;&gt;&lt;span style=&quot;background-color: initial;&quot;&gt;Page = 1&lt;/span&gt;&lt;/div&gt;&lt;div style=&quot;&quot;&gt;&lt;span style=&quot;background-color: initial;&quot;&gt;total = 0&lt;/span&gt;&lt;/div&gt;&lt;div style=&quot;&quot;&gt;&lt;span style=&quot;background-color: initial;&quot;&gt;updateLimit()&lt;/span&gt;&lt;/div&gt;&lt;div style=&quot;&quot;&gt;&lt;span style=&quot;background-color: initial;&quot;&gt;updatePage&lt;/span&gt;&lt;/div&gt;&lt;div style=&quot;&quot;&gt;&lt;span style=&quot;background-color: initial;&quot;&gt;&lt;br&gt;&lt;/span&gt;&lt;/div&gt;&lt;div style=&quot;&quot;&gt;&lt;span style=&quot;background-color: initial;&quot;&gt;TABLE&lt;/span&gt;&lt;/div&gt;&lt;div style=&quot;&quot;&gt;columns {field name, isNumeric}&lt;/div&gt;&lt;div style=&quot;&quot;&gt;rows&lt;/div&gt;&lt;div style=&quot;&quot;&gt;&lt;br&gt;&lt;/div&gt;&lt;div style=&quot;&quot;&gt;TITLE&lt;/div&gt;&lt;div style=&quot;&quot;&gt;title&lt;/div&gt;&lt;div style=&quot;&quot;&gt;&lt;br&gt;&lt;/div&gt;&lt;div style=&quot;&quot;&gt;ITEMS PER PAGE&lt;/div&gt;&lt;div style=&quot;&quot;&gt;updateLimit()&lt;/div&gt;&lt;div style=&quot;&quot;&gt;&lt;br&gt;&lt;/div&gt;&lt;div style=&quot;&quot;&gt;SORT AND FILTER&lt;/div&gt;&lt;div style=&quot;&quot;&gt;fields: Array&amp;lt;{&lt;/div&gt;&lt;div style=&quot;&quot;&gt;arrayWithOptions&lt;/div&gt;&lt;div style=&quot;&quot;&gt;actionOnslect&lt;/div&gt;&lt;div style=&quot;&quot;&gt;}&amp;gt;&lt;/div&gt;&lt;div style=&quot;&quot;&gt;updatePage&lt;/div&gt;&lt;div style=&quot;&quot;&gt;&lt;br&gt;&lt;/div&gt;&lt;div style=&quot;&quot;&gt;SEARCH&lt;/div&gt;&lt;div style=&quot;&quot;&gt;SORT IN HEADERS&lt;/div&gt;&lt;div style=&quot;&quot;&gt;&lt;br&gt;&lt;/div&gt;" style="text;html=1;strokeColor=none;fillColor=none;align=left;verticalAlign=middle;whiteSpace=wrap;rounded=0;" vertex="1" parent="1">
                    <mxGeometry x="80" y="110" width="320" height="390" as="geometry"/>
                </mxCell>
            </root>
        </mxGraphModel>
    </diagram>
</mxfile>